<svg class="_ufjrdd" viewBox="0 0 24 24" role="img" aria-labelledby="DropdownMenuea75b490-5176-4abf-8af1-293e618fc346 DropdownMenuea75b490-5176-4abf-8af1-293e618fc346Desc" xmlns="http://www.w3.org/2000/svg" style="fill: var(--cds-color-blue-600); height: 28px; width: 28px;"><title id="DropdownMenuea75b490-5176-4abf-8af1-293e618fc346">Dropdown Menu</title><path d="M12 8c1.1 0 2-.9 2-2s-.9-2-2-2-2 .9-2 2 .9 2 2 2zm0 2c-1.1 0-2 .9-2 2s.9 2 2 2 2-.9 2-2-.9-2-2-2zm0 6c-1.1 0-2 .9-2 2s.9 2 2 2 2-.9 2-2-.9-2-2-2z" role="presentation"></path></svg>